<svg xmlns="http://www.w3.org/2000/svg" xmlns:xlink="http://www.w3.org/1999/xlink" version="1.1" x="0px" y="0px" viewBox="0 0 100 125" enable-background="new 0 0 100 100" xml:space="preserve"><path d="M28.083,75.269c-0.117,0-0.231-0.041-0.321-0.117c-0.102-0.085-0.165-0.208-0.177-0.34l-2.629-30.048L16.542,45.5  c-0.225,0.023-0.422-0.105-0.505-0.307c-0.083-0.202-0.027-0.434,0.141-0.574l19.696-16.527c0.119-0.101,0.279-0.14,0.431-0.105  c0.152,0.034,0.28,0.138,0.345,0.28l3.27,7.151c0.038,0.083,0.052,0.174,0.042,0.264l-1.027,9.164l6.084,8.443  c0.079,0.109,0.11,0.246,0.087,0.379l-1.403,7.987l7.397,4.291c0.084,0.049,0.152,0.121,0.196,0.208l3.068,6.114  c0.074,0.148,0.07,0.323-0.01,0.468s-0.228,0.24-0.393,0.254l-25.833,2.278C28.112,75.268,28.097,75.269,28.083,75.269z   M25.411,43.722c0.256,0,0.475,0.196,0.498,0.457l2.629,30.048l24.602-2.169l-2.671-5.323l-7.569-4.39  c-0.182-0.105-0.278-0.312-0.242-0.519l1.427-8.124l-6.073-8.427c-0.073-0.101-0.106-0.225-0.092-0.349l1.034-9.219l-2.939-6.428  L18.034,44.365l7.333-0.641C25.382,43.723,25.396,43.722,25.411,43.722z M56.395,71.35c-0.195,0-0.374-0.114-0.456-0.293  c-0.028-0.062-2.445-5.374-2.865-6.297c-0.947-0.599-6.944-4.39-7.037-4.448c-0.178-0.112-0.267-0.324-0.223-0.529l1.717-7.974  l-5.685-8.559c-0.069-0.104-0.097-0.229-0.078-0.353l0.572-3.792c0.334-2.215,0.708-4.692,0.802-5.312l-3.392-8.237  c-0.083-0.202-0.026-0.434,0.141-0.573l6.435-5.399c0.161-0.136,0.39-0.155,0.571-0.05l14.68,8.475  c0.237,0.137,0.32,0.439,0.186,0.678c-0.125,0.222-1.331,1.911-3.156,4.463c-0.648,0.906-1.312,1.833-1.664,2.332  c0.322,0.249,0.803,0.616,1.298,0.995c0.853,0.652,1.746,1.335,1.959,1.51c0.148,0.121,0.214,0.316,0.169,0.502l-1.512,6.373  c0.88,0.335,2.887,1.1,3.059,1.163c0.194,0.072,0.324,0.256,0.326,0.463c0.001,0.11,0.001,0.117-0.714,2.656  c-0.251,0.89-0.552,1.96-0.667,2.388c0.465,0.713,2.212,3.391,3.638,5.577l-1.783-5.655c-0.028-0.088-0.03-0.183-0.008-0.272  l1.614-6.412c-2.302-0.753-2.364-0.781-2.41-0.802c-0.229-0.103-0.347-0.359-0.275-0.6l1.569-5.258  c-0.201-0.161-0.507-0.403-0.838-0.665c-0.992-0.786-1.652-1.31-1.776-1.426c-0.17-0.16-0.207-0.417-0.088-0.619l3.274-5.547  c0.14-0.236,0.443-0.316,0.681-0.179l13.986,8.075c0.189,0.109,0.285,0.328,0.238,0.542c-0.047,0.213-0.228,0.371-0.445,0.39  l-8.414,0.736l2.609,30.022c0.024,0.275-0.179,0.517-0.454,0.542l-15.542,1.37C56.424,71.349,56.409,71.35,56.395,71.35z   M46.865,59.651c1.344,0.85,6.792,4.293,6.871,4.343c0.082,0.052,0.146,0.126,0.187,0.215c0.026,0.057,2.191,4.814,2.781,6.111  l14.692-1.295l-2.609-30.022c-0.024-0.275,0.18-0.518,0.455-0.542l7.332-0.642l-12.185-7.035l-2.806,4.754  c0.362,0.292,0.963,0.768,1.407,1.12c0.576,0.456,1.08,0.856,1.133,0.906c0.139,0.129,0.193,0.327,0.138,0.509l-1.527,5.118  c0.363,0.121,1.013,0.335,2.139,0.704c0.157,0.051,0.251,0.084,0.252,0.085c0.222,0.099,0.341,0.343,0.282,0.579l-1.693,6.727  l2.835,8.995c0.075,0.238-0.037,0.495-0.262,0.602c-0.227,0.108-0.497,0.031-0.632-0.177c-0.049-0.074-5.705-8.744-5.749-8.812  c-0.052-0.08-0.08-0.172-0.081-0.268c-0.001-0.111-0.001-0.12,0.741-2.755c0.205-0.727,0.445-1.579,0.581-2.071  c-0.936-0.355-3.054-1.162-3.054-1.162c-0.234-0.089-0.366-0.339-0.308-0.583l1.54-6.489c-0.371-0.289-1.042-0.802-1.689-1.297  c-0.78-0.596-1.525-1.166-1.687-1.299c-0.188-0.154-0.238-0.42-0.119-0.632c0.054-0.096,0.444-0.644,1.966-2.771  c0.985-1.378,2.258-3.157,2.819-3.962l-13.913-8.032l-5.886,4.939l3.306,8.027c0.035,0.084,0.045,0.177,0.032,0.267  c-0.027,0.176-0.45,2.975-0.823,5.448l-0.544,3.602l5.695,8.574c0.075,0.113,0.101,0.25,0.072,0.383L46.865,59.651z M22.493,30.169  c0.025-0.07,2.658-7.044,9.32-8.22c0.272-0.048,0.454-0.307,0.405-0.579c-0.048-0.272-0.307-0.457-0.579-0.405  c-7.238,1.277-9.973,8.552-10.085,8.861c-0.095,0.259,0.039,0.546,0.298,0.641c0.057,0.021,0.115,0.031,0.172,0.031  C22.227,30.497,22.418,30.371,22.493,30.169z M19.986,25.921c0.029-0.069,3-6.897,9.729-7.732c0.274-0.034,0.469-0.284,0.435-0.558  c-0.034-0.274-0.286-0.475-0.558-0.435c-7.294,0.905-10.397,8.031-10.526,8.333c-0.108,0.254,0.011,0.548,0.265,0.656  c0.064,0.027,0.13,0.04,0.195,0.04C19.72,26.226,19.905,26.112,19.986,25.921z M69.859,79.41c0.327-0.041,8.03-1.068,10.904-7.833  c0.108-0.254-0.011-0.547-0.265-0.656c-0.252-0.107-0.548,0.011-0.656,0.265c-2.644,6.227-10.032,7.223-10.106,7.232  c-0.273,0.034-0.468,0.284-0.434,0.558c0.032,0.253,0.247,0.438,0.496,0.438C69.817,79.414,69.838,79.413,69.859,79.41z   M73.483,82.8c0.324-0.057,7.966-1.478,10.488-8.381c0.095-0.259-0.039-0.546-0.298-0.641c-0.259-0.093-0.546,0.039-0.641,0.298  c-2.322,6.354-9.649,7.727-9.723,7.74c-0.271,0.048-0.453,0.308-0.405,0.579c0.043,0.243,0.254,0.413,0.492,0.413  C73.424,82.808,73.454,82.805,73.483,82.8z"/><text x="0" y="115" fill="#000000" font-size="5px" font-weight="bold" font-family="'Helvetica Neue', Helvetica, Arial-Unicode, Arial, Sans-serif">Created by 4urbrand</text><text x="0" y="120" fill="#000000" font-size="5px" font-weight="bold" font-family="'Helvetica Neue', Helvetica, Arial-Unicode, Arial, Sans-serif">from the Noun Project</text></svg>