<svg xmlns="http://www.w3.org/2000/svg" xmlns:xlink="http://www.w3.org/1999/xlink" xmlns:serif="http://www.serif.com/" viewBox="0 0 512 640" version="1.1" xml:space="preserve" style="" x="0px" y="0px" fill-rule="evenodd" clip-rule="evenodd" stroke-linejoin="round" stroke-miterlimit="2"><g transform="matrix(1.06743,0,0,1.06743,-12.511,-17.2333)"><g><path d="M33.62,420.161C33.62,407.52 33.308,391.864 45.782,384.883C53.114,380.779 85.258,373.269 83.472,364.078C82.58,359.491 74.294,359.316 71.924,355.032C67.328,346.723 73.141,334.564 68.112,326.55C62.342,317.357 46.584,314.322 37.461,301.892C35.131,298.718 24.306,277.326 27.197,274.4C38.149,263.314 54.254,279.41 64.825,282.531C76.417,285.954 131.247,286.354 145.412,284.645C152.662,283.771 167.624,280.964 171.778,274.109C177.101,265.323 171.273,253.856 175.206,245.516C176.851,242.026 180.303,240.171 182.523,237.119C184.468,234.444 186.598,229.909 189.615,228.317C195.962,224.967 205.142,232.141 211.42,230.01C212.374,229.686 213.131,222.047 214.228,220.417C216.726,216.704 226.526,212.552 230.788,212.125C239.08,211.295 246.139,223.854 252.719,217.315C261.754,208.337 252.608,194.861 258.953,184.543C262.122,179.389 265.048,173.242 270.189,169.832C271.178,169.175 281.459,164.6 281.449,164.452C280.954,156.967 271.317,147.983 267.87,141.429C267.669,141.048 267.09,140.61 267.333,140.254C273.188,131.678 290.869,143.424 298.663,140.961C306.447,138.5 316.793,116.998 319.934,109.184C325.928,94.269 307.69,71.695 312.99,65.734C317.711,60.426 325.832,56.703 332.497,54.552C342.184,51.425 352.354,51.323 362.204,49.09C378.408,45.418 396.33,33.645 413.288,41.849C426.87,48.419 429.284,64.671 440.984,73.324C448.713,79.039 458.013,82.21 466.982,85.463C468.149,85.886 476.232,87.94 476.359,89.287C477.193,98.087 460.336,110.025 453.693,112.675C445.866,115.797 428.911,118.891 420.64,117.772C406.281,115.83 392.662,97.09 383.832,123.406C381.78,129.52 387.412,135.876 389.069,141.653C392.487,153.574 382.673,165.587 392.747,175.243C394.927,177.332 419.625,193.475 419.634,193.616C419.952,198.815 407.637,205.957 406.057,212.146C404.056,219.99 409.234,228.018 406.103,236C398.081,256.453 382.708,267.557 368.509,282.274C363.824,287.129 362.796,293.221 360.4,299.201C357.864,305.53 346.285,309.389 341.456,314.03C333.839,321.35 334.48,336.028 325.321,341.349C319.864,344.518 305.656,348.081 299.575,346.28C289.64,343.338 284.173,327.97 272.913,342.651C268.919,347.859 262.66,367.78 267.681,373.611C271.676,378.252 278.021,380.151 281.043,385.587C284.138,391.153 281.595,398.147 284.379,403.432C287.832,409.985 295.776,409.756 300.188,414.831C304.026,419.245 301.64,426.911 302.711,432.238C303.741,437.358 312.409,446.553 310.189,451.63C306.49,460.091 302.155,453.559 296.071,454.941C290.187,456.278 284.811,460.639 278.604,460.437C267.814,460.087 254.94,454.106 244.003,457.082C236.059,459.244 236.403,471.888 227.623,472.159C225.291,472.231 203.266,464.157 201.99,462.823C198.254,458.915 199.921,453.625 198.01,449.249C195.905,444.426 190.383,443.547 187.73,439.55C181.971,430.877 183.962,417.401 170.627,415.843C161.663,414.795 153.577,424.97 144.221,425.852C127.592,427.42 110.094,420.377 93.396,420.282C75.649,420.18 51.485,426.251 33.62,420.161Z"/></g></g><text x="0" y="527" fill="#000000" font-size="5px" font-weight="bold" font-family="'Helvetica Neue', Helvetica, Arial-Unicode, Arial, Sans-serif">Created by Anditii Creative</text><text x="0" y="532" fill="#000000" font-size="5px" font-weight="bold" font-family="'Helvetica Neue', Helvetica, Arial-Unicode, Arial, Sans-serif">from the Noun Project</text></svg>